<svg fill="#000000" xmlns="http://www.w3.org/2000/svg"  viewBox="0 0 24 24" width="96px" height="96px" clip-rule="evenodd"><path d="M 12.113281 1 C 7.0319982 1 3 5.2117684 3 10.253906 C 3 13.056652 4.7067512 16.060225 6.5820312 18.503906 C 7.5196714 19.725747 8.5112786 20.793101 9.4238281 21.583984 C 9.8801029 21.979426 10.315887 22.305556 10.740234 22.552734 C 11.164582 22.799913 11.563541 23 12.113281 23 C 12.680692 23 13.036612 22.784984 13.435547 22.537109 C 13.834482 22.289235 14.247803 21.964508 14.685547 21.570312 C 15.561035 20.781921 16.529524 19.718183 17.451172 18.498047 C 19.294468 16.057775 21 13.056652 21 10.253906 C 21 5.2117684 16.997453 1 12.113281 1 z M 12.113281 3 C 15.83911 3 19 6.2700446 19 10.253906 C 19 12.166161 17.55647 15.036537 15.853516 17.291016 C 15.002039 18.418255 14.097996 19.406532 13.345703 20.083984 C 12.969557 20.42271 12.630491 20.684738 12.380859 20.839844 C 12.247436 20.922745 12.136948 20.96116 12.083984 20.980469 C 12.038012 20.963795 11.928418 20.930421 11.746094 20.824219 C 11.478617 20.668416 11.123772 20.409746 10.734375 20.072266 C 9.9555808 19.397305 9.0336568 18.410691 8.1699219 17.285156 C 6.4424521 15.034087 5 12.166161 5 10.253906 C 5 6.2700445 8.1325648 3 12.113281 3 z M 12 6 C 11.594 6 11.211797 6.0794062 10.841797 6.1914062 C 11.524797 6.5104062 12 7.197 12 8 C 12 9.105 11.105 10 10 10 C 9.197 10 8.5104063 9.5247969 8.1914062 8.8417969 C 8.0794062 9.2117969 8 9.594 8 10 C 8 12.206 9.794 14 12 14 C 14.206 14 16 12.206 16 10 C 16 7.794 14.206 6 12 6 z" clip-rule="evenodd"/></svg>